<?xml version="1.0" encoding="UTF-8"?>
<svg xmlns="http://www.w3.org/2000/svg" version="1.1" xmlns:cc="http://creativecommons.org/ns#" xmlns:dc="http://purl.org/dc/elements/1.1/" xmlns:inkscape="http://www.inkscape.org/namespaces/inkscape" xmlns:rdf="http://www.w3.org/1999/02/22-rdf-syntax-ns#" xmlns:sodipodi="http://sodipodi.sourceforge.net/DTD/sodipodi-0.dtd" xmlns:svg="http://www.w3.org/2000/svg" xmlns:xlink="http://www.w3.org/1999/xlink" viewBox="0 0 153.5 166.8">
  <defs>
    <style>
      .cls-1 {
        fill: #09c;
      }

      .cls-2 {
        fill: none;
      }
    </style>
    <clipPath id="clippath">
      <rect class="cls-2" x="-2820.9" y="-213.1" width="3431.7" height="4441"/>
    </clipPath>
  </defs>
  <!-- Generator: Adobe Illustrator 28.7.1, SVG Export Plug-In . SVG Version: 1.2.0 Build 142)  -->
  <g>
    <g id="svg834" inkscape:version="0.92.2 5c3e80d, 2017-08-06" sodipodi:docname="PhasedRelease-CS.svg">
      <sodipodi:namedview id="namedview836" bordercolor="#666666" borderopacity="1" fit-margin-bottom="0" fit-margin-left="0" fit-margin-right="0" fit-margin-top="0" gridtolerance="10" guidetolerance="10" inkscape:current-layer="g1518" inkscape:cx="224.1701" inkscape:cy="171.71097" inkscape:pageopacity="0" inkscape:pageshadow="2" inkscape:window-height="945" inkscape:window-maximized="0" inkscape:window-width="1382" inkscape:window-x="168" inkscape:window-y="20" inkscape:zoom="1" objecttolerance="10" pagecolor="#ffffff" showgrid="false"/>
      <g id="g842" inkscape:groupmode="layer" inkscape:label="PhasedRelease-CS">
        <g id="g1518">
          <g id="g1557">
            <g id="g1402">
              <path id="path1404" class="cls-1" d="M84.7,163.1c-34.4-10.4-59.3-42.2-59.3-79.7S50.9,13.5,85.7,3.3C89.3,2.2,88.4,0,84,0,37.7,0,0,37.4,0,83.4s37.7,83.4,84,83.4c4.4,0,4.6-2.5.7-3.7" inkscape:connector-curvature="0"/>
            </g>
            <g id="g1406">
              <path id="path1408" class="cls-1" d="M41.4,102.8c-.3-2.2-.4-4.5-.4-6.7,0-36.6,29.6-66.2,66.2-66.2s44.9,15.5,46.2,14.4c1.5-1.1-12.6-31.7-53.1-31.7S34.1,42.2,34.1,78.7s1.6,16.5,4.5,23.9c1.2,3.2,3,3.2,2.8.1" inkscape:connector-curvature="0"/>
            </g>
            <g id="g1410">
              <path id="path1412" class="cls-1" d="M69.1,55.1c17.2-7.5,38.8-7.8,60.1-.3,14.3,5,22.6,12.2,23.3,11.8,1.2-.5-8.3-15.5-25.4-21.9-20.6-7.8-42.8-3.7-58.9,9-1.9,1.5-1.2,2.4.9,1.5" inkscape:connector-curvature="0"/>
            </g>
          </g>
        </g>
      </g>
    </g>
  </g>
</svg>